<mxfile host="app.diagrams.net" modified="2023-09-18T06:04:07.363Z" agent="Mozilla/5.0 (Macintosh; Intel Mac OS X 10_15_7) AppleWebKit/537.36 (KHTML, like Gecko) Chrome/117.0.0.0 Safari/537.36" version="21.7.5" etag="gKcQ_aNg2Xmb6RJy-S_X" type="device" pages="2">
  <diagram id="X0HmAGAjlnPNewl7HgHH" name="Page-1">
    <mxGraphModel dx="3835" dy="1525" grid="1" gridSize="10" guides="1" tooltips="1" connect="1" arrows="1" fold="1" page="1" pageScale="1" pageWidth="850" pageHeight="1100" math="0" shadow="0">
      <root>
        <mxCell id="0" />
        <mxCell id="1" parent="0" />
        <UserObject label="Training Program Delivery Team" link="https://hashicorp.github.io/field-workshops-vault/slides/multi-cloud/vault-oss/#1" id="2">
          <mxCell style="swimlane;whiteSpace=wrap;html=1;fillColor=none;" parent="1" vertex="1">
            <mxGeometry x="-430" y="3" width="1810" height="1377" as="geometry" />
          </mxCell>
        </UserObject>
        <mxCell id="107" value="" style="edgeStyle=none;html=1;" parent="2" source="4" target="7" edge="1">
          <mxGeometry relative="1" as="geometry" />
        </mxCell>
        <mxCell id="4" value="start" style="ellipse;whiteSpace=wrap;html=1;aspect=fixed;fillColor=#CCCCCC;" parent="2" vertex="1">
          <mxGeometry x="798" y="27" width="66" height="66" as="geometry" />
        </mxCell>
        <mxCell id="109" value="" style="edgeStyle=none;html=1;entryX=0.5;entryY=0;entryDx=0;entryDy=0;" parent="2" source="7" target="9" edge="1">
          <mxGeometry relative="1" as="geometry">
            <mxPoint x="691" y="166" as="targetPoint" />
            <Array as="points">
              <mxPoint x="449" y="166" />
            </Array>
          </mxGeometry>
        </mxCell>
        <mxCell id="111" value="" style="edgeStyle=none;html=1;entryX=0.5;entryY=0;entryDx=0;entryDy=0;" parent="2" source="7" target="12" edge="1">
          <mxGeometry relative="1" as="geometry">
            <mxPoint x="971" y="166" as="targetPoint" />
            <Array as="points">
              <mxPoint x="1321" y="167" />
            </Array>
          </mxGeometry>
        </mxCell>
        <mxCell id="7" value="Create Account Partner &amp;amp; Support Portal" style="whiteSpace=wrap;html=1;fillColor=#CCCCCC;" parent="2" vertex="1">
          <mxGeometry x="771" y="136" width="120" height="60" as="geometry" />
        </mxCell>
        <mxCell id="97" value="" style="edgeStyle=none;html=1;" parent="2" source="9" target="90" edge="1">
          <mxGeometry relative="1" as="geometry" />
        </mxCell>
        <mxCell id="9" value="IAM, Network &amp;amp; Apps Security" style="swimlane;fontStyle=0;childLayout=stackLayout;horizontal=1;startSize=30;horizontalStack=0;resizeParent=1;resizeParentMax=0;resizeLast=0;collapsible=1;marginBottom=0;whiteSpace=wrap;html=1;fillColor=#CCCCCC;" parent="2" vertex="1">
          <mxGeometry x="339" y="213" width="220" height="60" as="geometry" />
        </mxCell>
        <UserObject label="Cisco ID (Account Meilini)" link="https://id.cisco.com/signin/register" id="10">
          <mxCell style="text;strokeColor=none;fillColor=none;align=left;verticalAlign=middle;spacingLeft=4;spacingRight=4;overflow=hidden;points=[[0,0.5],[1,0.5]];portConstraint=eastwest;rotatable=0;whiteSpace=wrap;html=1;" parent="9" vertex="1">
            <mxGeometry y="30" width="220" height="30" as="geometry" />
          </mxCell>
        </UserObject>
        <mxCell id="83" value="" style="edgeStyle=none;html=1;" parent="2" source="12" target="80" edge="1">
          <mxGeometry relative="1" as="geometry" />
        </mxCell>
        <mxCell id="12" value="System &amp;amp; Data Security" style="swimlane;fontStyle=0;childLayout=stackLayout;horizontal=1;startSize=30;horizontalStack=0;resizeParent=1;resizeParentMax=0;resizeLast=0;collapsible=1;marginBottom=0;whiteSpace=wrap;html=1;fillColor=#CCCCCC;" parent="2" vertex="1">
          <mxGeometry x="1211" y="202" width="220" height="90" as="geometry" />
        </mxCell>
        <UserObject label="Thales (Contact Principal)" link="https://cpl.thalesgroup.com/partners/partner-login#rpa" id="13">
          <mxCell style="text;strokeColor=none;fillColor=none;align=left;verticalAlign=middle;spacingLeft=4;spacingRight=4;overflow=hidden;points=[[0,0.5],[1,0.5]];portConstraint=eastwest;rotatable=0;whiteSpace=wrap;html=1;" parent="12" vertex="1">
            <mxGeometry y="30" width="220" height="30" as="geometry" />
          </mxCell>
        </UserObject>
        <UserObject label="Titus (Contact Principal)&amp;nbsp;" link="https://www.hashicorp.com/partners" id="14">
          <mxCell style="text;strokeColor=none;fillColor=none;align=left;verticalAlign=middle;spacingLeft=4;spacingRight=4;overflow=hidden;points=[[0,0.5],[1,0.5]];portConstraint=eastwest;rotatable=0;whiteSpace=wrap;html=1;" parent="12" vertex="1">
            <mxGeometry y="60" width="220" height="30" as="geometry" />
          </mxCell>
        </UserObject>
        <mxCell id="99" value="" style="edgeStyle=none;html=1;" parent="2" source="17" target="93" edge="1">
          <mxGeometry relative="1" as="geometry" />
        </mxCell>
        <mxCell id="103" value="" style="edgeStyle=none;html=1;entryX=0.997;entryY=0;entryDx=0;entryDy=0;entryPerimeter=0;" parent="2" target="21" edge="1">
          <mxGeometry relative="1" as="geometry">
            <mxPoint x="442.74" y="462.90617713147094" as="sourcePoint" />
          </mxGeometry>
        </mxCell>
        <mxCell id="17" value="Hashicorp Vault Implementation Fondation" style="whiteSpace=wrap;html=1;fillColor=#CCCCCC;" parent="2" vertex="1">
          <mxGeometry x="389" y="434" width="120" height="60" as="geometry" />
        </mxCell>
        <mxCell id="155" value="" style="edgeStyle=none;html=1;strokeColor=#000000;" parent="2" source="34" target="152" edge="1">
          <mxGeometry relative="1" as="geometry" />
        </mxCell>
        <UserObject label="&lt;span style=&quot;font-family: Arial, Helvetica, sans-serif; font-size: small; text-align: start; background-color: rgb(255, 255, 255);&quot;&gt;Trellix DLP + Device control administration&lt;/span&gt;" link="https://learn.acloud.guru/course/6b00566d-6246-4ebe-8257-f98f989321cf/dashboard" id="34">
          <mxCell style="whiteSpace=wrap;html=1;fillColor=#CCCCCC;" parent="2" vertex="1">
            <mxGeometry x="1271" y="798.33" width="120" height="60" as="geometry" />
          </mxCell>
        </UserObject>
        <mxCell id="131" value="" style="edgeStyle=none;html=1;" parent="2" source="79" target="89" edge="1">
          <mxGeometry relative="1" as="geometry" />
        </mxCell>
        <UserObject label="Ciphertrust Manager Professional Certification Course" link="https://learn.acloud.guru/course/6b00566d-6246-4ebe-8257-f98f989321cf/dashboard" id="79">
          <mxCell style="whiteSpace=wrap;html=1;fillColor=#CCCCCC;" parent="2" vertex="1">
            <mxGeometry x="1263" y="562" width="120" height="60" as="geometry" />
          </mxCell>
        </UserObject>
        <mxCell id="84" value="" style="edgeStyle=none;html=1;" parent="2" source="80" target="81" edge="1">
          <mxGeometry relative="1" as="geometry" />
        </mxCell>
        <UserObject label="Luna HSM 7 Professional Certification Course" link="https://learn.acloud.guru/course/6b00566d-6246-4ebe-8257-f98f989321cf/dashboard" id="80">
          <mxCell style="whiteSpace=wrap;html=1;fillColor=#CCCCCC;" parent="2" vertex="1">
            <mxGeometry x="1261" y="331.00000000000006" width="120" height="60" as="geometry" />
          </mxCell>
        </UserObject>
        <mxCell id="86" value="" style="edgeStyle=none;html=1;" parent="2" source="81" target="79" edge="1">
          <mxGeometry relative="1" as="geometry" />
        </mxCell>
        <mxCell id="88" value="" style="edgeStyle=none;html=1;" parent="2" source="81" target="82" edge="1">
          <mxGeometry relative="1" as="geometry" />
        </mxCell>
        <UserObject label="Payshield 10K Professional Certification Course" link="https://learn.acloud.guru/course/6b00566d-6246-4ebe-8257-f98f989321cf/dashboard" id="81">
          <mxCell style="whiteSpace=wrap;html=1;fillColor=#CCCCCC;" parent="2" vertex="1">
            <mxGeometry x="1263" y="448.00000000000006" width="120" height="60" as="geometry" />
          </mxCell>
        </UserObject>
        <UserObject label="High Speed Encryption Certification Course" link="https://learn.acloud.guru/course/6b00566d-6246-4ebe-8257-f98f989321cf/dashboard" id="82">
          <mxCell style="whiteSpace=wrap;html=1;fillColor=#CCCCCC;" parent="2" vertex="1">
            <mxGeometry x="1451" y="452" width="120" height="60" as="geometry" />
          </mxCell>
        </UserObject>
        <mxCell id="132" value="" style="edgeStyle=none;html=1;" parent="2" source="89" target="34" edge="1">
          <mxGeometry relative="1" as="geometry" />
        </mxCell>
        <UserObject label="Thales ProtectServer Certification Course" link="https://learn.acloud.guru/course/6b00566d-6246-4ebe-8257-f98f989321cf/dashboard" id="89">
          <mxCell style="whiteSpace=wrap;html=1;fillColor=#CCCCCC;" parent="2" vertex="1">
            <mxGeometry x="1266" y="682" width="120" height="60" as="geometry" />
          </mxCell>
        </UserObject>
        <mxCell id="98" value="" style="edgeStyle=none;html=1;" parent="2" source="90" target="17" edge="1">
          <mxGeometry relative="1" as="geometry" />
        </mxCell>
        <mxCell id="90" value="Cisco Certified Specialist Web Content Security (WSA)" style="whiteSpace=wrap;html=1;fillColor=#CCCCCC;" parent="2" vertex="1">
          <mxGeometry x="388" y="322" width="120" height="60" as="geometry" />
        </mxCell>
        <mxCell id="102" value="" style="edgeStyle=none;html=1;" parent="2" source="92" target="96" edge="1">
          <mxGeometry relative="1" as="geometry" />
        </mxCell>
        <mxCell id="92" value="Thales SAS PCE Professional Certification Course" style="whiteSpace=wrap;html=1;fillColor=#CCCCCC;" parent="2" vertex="1">
          <mxGeometry x="391" y="788.33" width="120" height="60" as="geometry" />
        </mxCell>
        <mxCell id="100" value="" style="edgeStyle=none;html=1;" parent="2" source="93" target="94" edge="1">
          <mxGeometry relative="1" as="geometry" />
        </mxCell>
        <mxCell id="93" value="Hashicorp Vault Associate" style="whiteSpace=wrap;html=1;fillColor=#CCCCCC;" parent="2" vertex="1">
          <mxGeometry x="389" y="552" width="120" height="60" as="geometry" />
        </mxCell>
        <mxCell id="101" value="" style="edgeStyle=none;html=1;" parent="2" source="94" target="92" edge="1">
          <mxGeometry relative="1" as="geometry" />
        </mxCell>
        <mxCell id="94" value="Hashicorp Vault Professional" style="whiteSpace=wrap;html=1;fillColor=#CCCCCC;" parent="2" vertex="1">
          <mxGeometry x="391" y="662" width="120" height="60" as="geometry" />
        </mxCell>
        <mxCell id="148" value="" style="edgeStyle=none;html=1;" parent="2" source="96" target="147" edge="1">
          <mxGeometry relative="1" as="geometry" />
        </mxCell>
        <mxCell id="96" value="Hashicorp Consul Associate" style="whiteSpace=wrap;html=1;fillColor=#CCCCCC;" parent="2" vertex="1">
          <mxGeometry x="391" y="906" width="120" height="60" as="geometry" />
        </mxCell>
        <mxCell id="105" value="" style="edgeStyle=none;html=1;entryX=0.5;entryY=0;entryDx=0;entryDy=0;" parent="2" source="20" target="26" edge="1">
          <mxGeometry relative="1" as="geometry" />
        </mxCell>
        <UserObject label="Hashicorp Vault Field Workshop&lt;br&gt;Modern Security with Vault for Any Cloud" link="https://github.com/hashicorp/field-workshops-vault" id="20">
          <mxCell style="swimlane;fontStyle=0;childLayout=stackLayout;horizontal=1;startSize=30;horizontalStack=0;resizeParent=1;resizeParentMax=0;resizeLast=0;collapsible=1;marginBottom=0;whiteSpace=wrap;html=1;fillColor=#CCCCCC;" parent="2" vertex="1">
            <mxGeometry x="34.74000000000001" y="432.00000000000006" width="220" height="120" as="geometry" />
          </mxCell>
        </UserObject>
        <UserObject label="Vault Basic" id="21">
          <mxCell style="text;strokeColor=none;fillColor=none;align=left;verticalAlign=middle;spacingLeft=4;spacingRight=4;overflow=hidden;points=[[0,0.5],[1,0.5]];portConstraint=eastwest;rotatable=0;whiteSpace=wrap;html=1;" parent="20" vertex="1">
            <mxGeometry y="30" width="220" height="30" as="geometry" />
          </mxCell>
        </UserObject>
        <UserObject label="Vault Dynamic Database Credentials" id="22">
          <mxCell style="text;strokeColor=none;fillColor=none;align=left;verticalAlign=middle;spacingLeft=4;spacingRight=4;overflow=hidden;points=[[0,0.5],[1,0.5]];portConstraint=eastwest;rotatable=0;whiteSpace=wrap;html=1;" parent="20" vertex="1">
            <mxGeometry y="60" width="220" height="30" as="geometry" />
          </mxCell>
        </UserObject>
        <UserObject label="Vault Encryption as a Service&amp;nbsp;" id="23">
          <mxCell style="text;strokeColor=none;fillColor=none;align=left;verticalAlign=middle;spacingLeft=4;spacingRight=4;overflow=hidden;points=[[0,0.5],[1,0.5]];portConstraint=eastwest;rotatable=0;whiteSpace=wrap;html=1;" parent="20" vertex="1">
            <mxGeometry y="90" width="220" height="30" as="geometry" />
          </mxCell>
        </UserObject>
        <UserObject label="Hashicorp Vault Field Workshop&lt;br&gt;Zero Trust Security and Data Protection" link="https://github.com/hashicorp/field-workshops-vault" id="26">
          <mxCell style="swimlane;fontStyle=0;childLayout=stackLayout;horizontal=1;startSize=30;horizontalStack=0;resizeParent=1;resizeParentMax=0;resizeLast=0;collapsible=1;marginBottom=0;whiteSpace=wrap;html=1;fillColor=#CCCCCC;" parent="2" vertex="1">
            <mxGeometry x="34.74000000000001" y="602" width="220" height="60" as="geometry" />
          </mxCell>
        </UserObject>
        <UserObject label="FileSystem/Database/Hardware as a Service" id="27">
          <mxCell style="text;strokeColor=none;fillColor=none;align=left;verticalAlign=middle;spacingLeft=4;spacingRight=4;overflow=hidden;points=[[0,0.5],[1,0.5]];portConstraint=eastwest;rotatable=0;whiteSpace=wrap;html=1;" parent="26" vertex="1">
            <mxGeometry y="30" width="220" height="30" as="geometry" />
          </mxCell>
        </UserObject>
        <mxCell id="112" value="Notes :" style="text;html=1;strokeColor=none;fillColor=none;align=center;verticalAlign=middle;whiteSpace=wrap;rounded=0;" parent="2" vertex="1">
          <mxGeometry x="20" y="1037" width="60" height="30" as="geometry" />
        </mxCell>
        <mxCell id="113" value="" style="endArrow=classic;html=1;" parent="2" edge="1">
          <mxGeometry width="50" height="50" relative="1" as="geometry">
            <mxPoint x="104.74000000000001" y="1167" as="sourcePoint" />
            <mxPoint x="184.74" y="1167" as="targetPoint" />
          </mxGeometry>
        </mxCell>
        <mxCell id="114" value="New Assignment" style="text;html=1;strokeColor=none;fillColor=none;align=center;verticalAlign=middle;whiteSpace=wrap;rounded=0;" parent="2" vertex="1">
          <mxGeometry x="20" y="1077" width="60" height="30" as="geometry" />
        </mxCell>
        <mxCell id="115" value="Renew" style="text;html=1;strokeColor=none;fillColor=none;align=center;verticalAlign=middle;whiteSpace=wrap;rounded=0;" parent="2" vertex="1">
          <mxGeometry x="20" y="1117" width="60" height="30" as="geometry" />
        </mxCell>
        <mxCell id="117" value="" style="endArrow=classic;startArrow=classic;html=1;" parent="2" edge="1">
          <mxGeometry width="50" height="50" relative="1" as="geometry">
            <mxPoint x="95" y="1131" as="sourcePoint" />
            <mxPoint x="200" y="1131" as="targetPoint" />
          </mxGeometry>
        </mxCell>
        <mxCell id="118" value="" style="endArrow=classic;html=1;" parent="2" edge="1">
          <mxGeometry relative="1" as="geometry">
            <mxPoint x="94.74" y="1096" as="sourcePoint" />
            <mxPoint x="194.74" y="1096" as="targetPoint" />
          </mxGeometry>
        </mxCell>
        <mxCell id="119" value="" style="shape=message;html=1;outlineConnect=0;" parent="118" vertex="1">
          <mxGeometry width="20" height="14" relative="1" as="geometry">
            <mxPoint x="-10" y="-7" as="offset" />
          </mxGeometry>
        </mxCell>
        <mxCell id="120" value="Next Assignment" style="text;html=1;strokeColor=none;fillColor=none;align=center;verticalAlign=middle;whiteSpace=wrap;rounded=0;" parent="2" vertex="1">
          <mxGeometry x="34.74000000000001" y="1157" width="60" height="30" as="geometry" />
        </mxCell>
        <mxCell id="121" value="Ahmad" style="shape=umlActor;verticalLabelPosition=bottom;verticalAlign=top;html=1;outlineConnect=0;fillColor=#FF0000;" parent="2" vertex="1">
          <mxGeometry x="1000" y="437" width="30" height="60" as="geometry" />
        </mxCell>
        <mxCell id="125" value="Armi" style="shape=umlActor;verticalLabelPosition=bottom;verticalAlign=top;html=1;outlineConnect=0;fillColor=#3333FF;" parent="2" vertex="1">
          <mxGeometry x="720" y="436" width="30" height="60" as="geometry" />
        </mxCell>
        <mxCell id="126" value="Oktafian" style="shape=umlActor;verticalLabelPosition=bottom;verticalAlign=top;html=1;outlineConnect=0;fillColor=#FF8000;" parent="2" vertex="1">
          <mxGeometry x="720" y="573.5" width="30" height="60" as="geometry" />
        </mxCell>
        <mxCell id="127" value="Theodorus" style="shape=umlActor;verticalLabelPosition=bottom;verticalAlign=top;html=1;outlineConnect=0;fillColor=#E6E6E6;" parent="2" vertex="1">
          <mxGeometry x="720" y="707" width="30" height="60" as="geometry" />
        </mxCell>
        <mxCell id="128" value="" style="endArrow=classic;html=1;exitX=1;exitY=0.3333333333333333;exitDx=0;exitDy=0;exitPerimeter=0;entryX=0;entryY=0.5;entryDx=0;entryDy=0;strokeColor=#FF3333;" parent="2" source="121" target="34" edge="1">
          <mxGeometry relative="1" as="geometry">
            <mxPoint x="1070" y="463.1700000000001" as="sourcePoint" />
            <mxPoint x="1170" y="463.1700000000001" as="targetPoint" />
          </mxGeometry>
        </mxCell>
        <mxCell id="274" value="1" style="edgeLabel;html=1;align=center;verticalAlign=middle;resizable=0;points=[];rotation=90;" parent="128" vertex="1" connectable="0">
          <mxGeometry x="-0.2296" y="5" relative="1" as="geometry">
            <mxPoint as="offset" />
          </mxGeometry>
        </mxCell>
        <mxCell id="136" value="" style="endArrow=classic;html=1;exitX=1;exitY=0.3333333333333333;exitDx=0;exitDy=0;exitPerimeter=0;strokeColor=#FF3333;" parent="2" source="121" edge="1">
          <mxGeometry width="50" height="50" relative="1" as="geometry">
            <mxPoint x="929.9999999999998" y="736.1700000000001" as="sourcePoint" />
            <mxPoint x="1270" y="927" as="targetPoint" />
          </mxGeometry>
        </mxCell>
        <mxCell id="141" value="" style="endArrow=classic;html=1;exitX=0;exitY=0.3333333333333333;exitDx=0;exitDy=0;exitPerimeter=0;entryX=1;entryY=0.5;entryDx=0;entryDy=0;strokeColor=#FF8000;" parent="2" source="126" target="93" edge="1">
          <mxGeometry relative="1" as="geometry">
            <mxPoint x="1040" y="608.5" as="sourcePoint" />
            <mxPoint x="1281" y="838.3299999999999" as="targetPoint" />
          </mxGeometry>
        </mxCell>
        <mxCell id="142" value="" style="shape=message;html=1;outlineConnect=0;" parent="141" vertex="1">
          <mxGeometry width="20" height="14" relative="1" as="geometry">
            <mxPoint x="-10" y="-7" as="offset" />
          </mxGeometry>
        </mxCell>
        <mxCell id="143" value="" style="endArrow=classic;html=1;exitX=0;exitY=0.3333333333333333;exitDx=0;exitDy=0;exitPerimeter=0;entryX=1;entryY=0.5;entryDx=0;entryDy=0;strokeColor=#FF9933;" parent="2" source="126" target="90" edge="1">
          <mxGeometry width="50" height="50" relative="1" as="geometry">
            <mxPoint x="1040" y="608.5" as="sourcePoint" />
            <mxPoint x="1270" y="717" as="targetPoint" />
          </mxGeometry>
        </mxCell>
        <mxCell id="252" value="1" style="edgeLabel;html=1;align=center;verticalAlign=middle;resizable=0;points=[];" parent="143" vertex="1" connectable="0">
          <mxGeometry x="-0.1604" y="-2" relative="1" as="geometry">
            <mxPoint as="offset" />
          </mxGeometry>
        </mxCell>
        <mxCell id="144" value="" style="endArrow=classic;html=1;exitX=0;exitY=0.3333333333333333;exitDx=0;exitDy=0;exitPerimeter=0;entryX=1;entryY=0.5;entryDx=0;entryDy=0;strokeColor=#3333FF;" parent="2" source="125" target="90" edge="1">
          <mxGeometry relative="1" as="geometry">
            <mxPoint x="730" y="603.5" as="sourcePoint" />
            <mxPoint x="519" y="592" as="targetPoint" />
          </mxGeometry>
        </mxCell>
        <mxCell id="145" value="" style="shape=message;html=1;outlineConnect=0;" parent="144" vertex="1">
          <mxGeometry width="20" height="14" relative="1" as="geometry">
            <mxPoint x="-10" y="-7" as="offset" />
          </mxGeometry>
        </mxCell>
        <mxCell id="259" value="" style="edgeStyle=none;html=1;strokeColor=#000000;fillColor=#99004D;" parent="2" source="147" target="257" edge="1">
          <mxGeometry relative="1" as="geometry" />
        </mxCell>
        <mxCell id="268" value="" style="edgeStyle=none;html=1;entryX=0.444;entryY=1.046;entryDx=0;entryDy=0;entryPerimeter=0;" parent="2" source="147" target="266" edge="1">
          <mxGeometry relative="1" as="geometry">
            <mxPoint x="311" y="1044.9999999999998" as="targetPoint" />
            <Array as="points">
              <mxPoint x="138" y="1047" />
            </Array>
          </mxGeometry>
        </mxCell>
        <mxCell id="147" value="Okta Identity" style="whiteSpace=wrap;html=1;fillColor=#CCCCCC;" parent="2" vertex="1">
          <mxGeometry x="391" y="1015" width="120" height="60" as="geometry" />
        </mxCell>
        <mxCell id="151" value="" style="endArrow=classic;html=1;entryX=1;entryY=0.5;entryDx=0;entryDy=0;exitX=0;exitY=0.3333333333333333;exitDx=0;exitDy=0;exitPerimeter=0;strokeColor=#B3B3B3;" parent="2" source="127" target="96" edge="1">
          <mxGeometry width="50" height="50" relative="1" as="geometry">
            <mxPoint x="730" y="467" as="sourcePoint" />
            <mxPoint x="519" y="474" as="targetPoint" />
          </mxGeometry>
        </mxCell>
        <UserObject label="&lt;span style=&quot;font-family: Arial, Helvetica, sans-serif; font-size: small; text-align: start; background-color: rgb(255, 255, 255);&quot;&gt;Crowdstrike&lt;/span&gt;" link="https://learn.acloud.guru/course/6b00566d-6246-4ebe-8257-f98f989321cf/dashboard" id="152">
          <mxCell style="whiteSpace=wrap;html=1;fillColor=#CCCCCC;" parent="2" vertex="1">
            <mxGeometry x="1271" y="897" width="120" height="60" as="geometry" />
          </mxCell>
        </UserObject>
        <mxCell id="249" value="" style="edgeStyle=none;html=1;strokeColor=#000000;fillColor=#99004D;" parent="2" source="153" target="248" edge="1">
          <mxGeometry relative="1" as="geometry" />
        </mxCell>
        <mxCell id="153" value="ZScaler" style="whiteSpace=wrap;html=1;fillColor=#CCCCCC;" parent="2" vertex="1">
          <mxGeometry x="389" y="1214" width="120" height="60" as="geometry" />
        </mxCell>
        <mxCell id="156" value="Puji" style="shape=umlActor;verticalLabelPosition=bottom;verticalAlign=top;html=1;outlineConnect=0;fillColor=#660033;" parent="2" vertex="1">
          <mxGeometry x="840" y="707" width="30" height="60" as="geometry" />
        </mxCell>
        <mxCell id="159" value="" style="endArrow=classic;html=1;exitX=1;exitY=0.3333333333333333;exitDx=0;exitDy=0;exitPerimeter=0;strokeColor=#99004D;entryX=0;entryY=0.5;entryDx=0;entryDy=0;" parent="2" source="156" target="152" edge="1">
          <mxGeometry width="50" height="50" relative="1" as="geometry">
            <mxPoint x="1040" y="608.5" as="sourcePoint" />
            <mxPoint x="1270" y="717" as="targetPoint" />
          </mxGeometry>
        </mxCell>
        <mxCell id="239" value="1" style="edgeLabel;html=1;align=center;verticalAlign=middle;resizable=0;points=[];" parent="159" vertex="1" connectable="0">
          <mxGeometry x="-0.169" relative="1" as="geometry">
            <mxPoint as="offset" />
          </mxGeometry>
        </mxCell>
        <mxCell id="237" value="" style="endArrow=classic;html=1;exitX=0;exitY=0.3333333333333333;exitDx=0;exitDy=0;exitPerimeter=0;strokeColor=#99004D;entryX=1;entryY=0.5;entryDx=0;entryDy=0;startArrow=none;" parent="2" source="269" target="93" edge="1">
          <mxGeometry width="50" height="50" relative="1" as="geometry">
            <mxPoint x="880" y="737" as="sourcePoint" />
            <mxPoint x="1281" y="937" as="targetPoint" />
          </mxGeometry>
        </mxCell>
        <mxCell id="248" value="FortyProxy&lt;br&gt;NSE 4, 5, 6" style="whiteSpace=wrap;html=1;fillColor=#CCCCCC;" parent="2" vertex="1">
          <mxGeometry x="387" y="1311" width="120" height="60" as="geometry" />
        </mxCell>
        <mxCell id="253" value="" style="endArrow=classic;html=1;entryX=1;entryY=0.25;entryDx=0;entryDy=0;strokeColor=#FF9933;exitX=0;exitY=0.3333333333333333;exitDx=0;exitDy=0;exitPerimeter=0;" parent="2" source="126" target="153" edge="1">
          <mxGeometry width="50" height="50" relative="1" as="geometry">
            <mxPoint x="720" y="587" as="sourcePoint" />
            <mxPoint x="518" y="362" as="targetPoint" />
          </mxGeometry>
        </mxCell>
        <mxCell id="256" value="2" style="edgeLabel;html=1;align=center;verticalAlign=middle;resizable=0;points=[];" parent="253" vertex="1" connectable="0">
          <mxGeometry x="0.6237" y="2" relative="1" as="geometry">
            <mxPoint as="offset" />
          </mxGeometry>
        </mxCell>
        <mxCell id="260" value="" style="edgeStyle=none;html=1;strokeColor=#000000;fillColor=#99004D;" parent="2" source="257" target="153" edge="1">
          <mxGeometry relative="1" as="geometry" />
        </mxCell>
        <mxCell id="257" value="Cisco Duo" style="whiteSpace=wrap;html=1;fillColor=#CCCCCC;" parent="2" vertex="1">
          <mxGeometry x="391" y="1117" width="120" height="60" as="geometry" />
        </mxCell>
        <UserObject label="Okta Traiing Program" link="https://partnercommunity.okta.com/s/" id="263">
          <mxCell style="swimlane;fontStyle=0;childLayout=stackLayout;horizontal=1;startSize=30;horizontalStack=0;resizeParent=1;resizeParentMax=0;resizeLast=0;collapsible=1;marginBottom=0;whiteSpace=wrap;html=1;fillColor=#CCCCCC;" parent="2" vertex="1">
            <mxGeometry x="40" y="887" width="220" height="120" as="geometry" />
          </mxCell>
        </UserObject>
        <UserObject label="Implement Okta Access Gateway, OAG (on-demand)" id="264">
          <mxCell style="text;strokeColor=none;fillColor=none;align=left;verticalAlign=middle;spacingLeft=4;spacingRight=4;overflow=hidden;points=[[0,0.5],[1,0.5]];portConstraint=eastwest;rotatable=0;whiteSpace=wrap;html=1;" parent="263" vertex="1">
            <mxGeometry y="30" width="220" height="30" as="geometry" />
          </mxCell>
        </UserObject>
        <UserObject label="Implement Advanced Server Access, ASA (on-demand)" id="265">
          <mxCell style="text;strokeColor=none;fillColor=none;align=left;verticalAlign=middle;spacingLeft=4;spacingRight=4;overflow=hidden;points=[[0,0.5],[1,0.5]];portConstraint=eastwest;rotatable=0;whiteSpace=wrap;html=1;" parent="263" vertex="1">
            <mxGeometry y="60" width="220" height="30" as="geometry" />
          </mxCell>
        </UserObject>
        <UserObject label="Vault Encryption as a Service&amp;nbsp;" id="266">
          <mxCell style="text;strokeColor=none;fillColor=none;align=left;verticalAlign=middle;spacingLeft=4;spacingRight=4;overflow=hidden;points=[[0,0.5],[1,0.5]];portConstraint=eastwest;rotatable=0;whiteSpace=wrap;html=1;" parent="263" vertex="1">
            <mxGeometry y="90" width="220" height="30" as="geometry" />
          </mxCell>
        </UserObject>
        <mxCell id="269" value="" style="shape=message;html=1;outlineConnect=0;" parent="2" vertex="1">
          <mxGeometry x="729.9963038663725" y="676.9978987112094" width="20" height="14" as="geometry" />
        </mxCell>
        <mxCell id="270" value="" style="endArrow=none;html=1;exitX=0;exitY=0.3333333333333333;exitDx=0;exitDy=0;exitPerimeter=0;strokeColor=#99004D;entryX=1;entryY=0.5;entryDx=0;entryDy=0;" parent="2" source="156" target="269" edge="1">
          <mxGeometry width="50" height="50" relative="1" as="geometry">
            <mxPoint x="410" y="730" as="sourcePoint" />
            <mxPoint x="79" y="585" as="targetPoint" />
          </mxGeometry>
        </mxCell>
        <mxCell id="271" value="1" style="edgeLabel;html=1;align=center;verticalAlign=middle;resizable=0;points=[];" parent="270" vertex="1" connectable="0">
          <mxGeometry x="-0.2009" y="1" relative="1" as="geometry">
            <mxPoint as="offset" />
          </mxGeometry>
        </mxCell>
        <mxCell id="261" value="" style="endArrow=classic;html=1;exitX=1;exitY=0.3333333333333333;exitDx=0;exitDy=0;exitPerimeter=0;strokeColor=#B3B3B3;entryX=1;entryY=0.75;entryDx=0;entryDy=0;" parent="2" source="127" target="147" edge="1">
          <mxGeometry width="50" height="50" relative="1" as="geometry">
            <mxPoint x="730" y="737" as="sourcePoint" />
            <mxPoint x="1260" y="597" as="targetPoint" />
          </mxGeometry>
        </mxCell>
        <mxCell id="262" value="2" style="edgeLabel;html=1;align=center;verticalAlign=middle;resizable=0;points=[];" parent="261" vertex="1" connectable="0">
          <mxGeometry x="-0.3979" y="3" relative="1" as="geometry">
            <mxPoint as="offset" />
          </mxGeometry>
        </mxCell>
        <mxCell id="24" value="Slide &lt;br&gt;Show" style="whiteSpace=wrap;html=1;fillColor=#CCCCCC;" parent="1" vertex="1">
          <mxGeometry x="-152" y="480.5" width="72" height="29" as="geometry" />
        </mxCell>
        <mxCell id="19" value="" style="edgeStyle=orthogonalEdgeStyle;rounded=0;orthogonalLoop=1;jettySize=auto;html=1;" parent="1" source="20" target="24" edge="1">
          <mxGeometry relative="1" as="geometry" />
        </mxCell>
        <UserObject label="Slide &lt;br&gt;Show" link="https://hashicorp.github.io/field-workshops-vault/slides/multi-cloud/adp/#1" id="28">
          <mxCell style="whiteSpace=wrap;html=1;fillColor=#CCCCCC;" parent="1" vertex="1">
            <mxGeometry x="-144" y="620.5" width="64" height="29" as="geometry" />
          </mxCell>
        </UserObject>
        <mxCell id="25" value="" style="edgeStyle=orthogonalEdgeStyle;rounded=0;orthogonalLoop=1;jettySize=auto;html=1;" parent="1" source="26" target="28" edge="1">
          <mxGeometry relative="1" as="geometry" />
        </mxCell>
        <mxCell id="146" value="" style="endArrow=classic;html=1;entryX=1;entryY=0.5;entryDx=0;entryDy=0;strokeColor=#3333FF;" parent="1" target="153" edge="1">
          <mxGeometry width="50" height="50" relative="1" as="geometry">
            <mxPoint x="290" y="460" as="sourcePoint" />
            <mxPoint x="88" y="365" as="targetPoint" />
          </mxGeometry>
        </mxCell>
        <mxCell id="251" value="1" style="edgeLabel;html=1;align=center;verticalAlign=middle;resizable=0;points=[];" parent="146" vertex="1" connectable="0">
          <mxGeometry x="-0.0775" y="3" relative="1" as="geometry">
            <mxPoint x="-1" as="offset" />
          </mxGeometry>
        </mxCell>
        <mxCell id="149" value="" style="endArrow=classic;html=1;exitX=0;exitY=0.3333333333333333;exitDx=0;exitDy=0;exitPerimeter=0;entryX=1;entryY=0.5;entryDx=0;entryDy=0;strokeColor=#B3B3B3;" parent="1" source="127" edge="1">
          <mxGeometry relative="1" as="geometry">
            <mxPoint x="300" y="606.5" as="sourcePoint" />
            <mxPoint x="89" y="595" as="targetPoint" />
          </mxGeometry>
        </mxCell>
        <mxCell id="150" value="" style="shape=message;html=1;outlineConnect=0;" parent="149" vertex="1">
          <mxGeometry width="20" height="14" relative="1" as="geometry">
            <mxPoint x="-10" y="-7" as="offset" />
          </mxGeometry>
        </mxCell>
        <mxCell id="240" value="" style="endArrow=classic;html=1;strokeColor=#99004D;" parent="1" edge="1">
          <mxGeometry width="50" height="50" relative="1" as="geometry">
            <mxPoint x="440" y="730" as="sourcePoint" />
            <mxPoint x="840" y="830" as="targetPoint" />
          </mxGeometry>
        </mxCell>
        <mxCell id="241" value="2" style="edgeLabel;html=1;align=center;verticalAlign=middle;resizable=0;points=[];" parent="240" vertex="1" connectable="0">
          <mxGeometry x="-0.169" relative="1" as="geometry">
            <mxPoint as="offset" />
          </mxGeometry>
        </mxCell>
        <mxCell id="243" value="" style="endArrow=classic;html=1;entryX=0;entryY=0.5;entryDx=0;entryDy=0;strokeColor=#3333FF;" parent="1" target="89" edge="1">
          <mxGeometry relative="1" as="geometry">
            <mxPoint x="290" y="460" as="sourcePoint" />
            <mxPoint x="88" y="365" as="targetPoint" />
          </mxGeometry>
        </mxCell>
        <mxCell id="247" value="3" style="edgeLabel;html=1;align=center;verticalAlign=middle;resizable=0;points=[];" parent="243" vertex="1" connectable="0">
          <mxGeometry x="0.4382" y="1" relative="1" as="geometry">
            <mxPoint as="offset" />
          </mxGeometry>
        </mxCell>
        <mxCell id="275" value="" style="shape=message;html=1;outlineConnect=0;" parent="1" vertex="1">
          <mxGeometry x="693.5619333408299" y="659.7604261719935" width="20" height="14" as="geometry" />
        </mxCell>
        <mxCell id="276" value="" style="endArrow=classic;html=1;strokeColor=#FF9933;exitX=1;exitY=0.3333333333333333;exitDx=0;exitDy=0;exitPerimeter=0;" parent="1" source="126" edge="1">
          <mxGeometry width="50" height="50" relative="1" as="geometry">
            <mxPoint x="300" y="606.5" as="sourcePoint" />
            <mxPoint x="830" y="480" as="targetPoint" />
          </mxGeometry>
        </mxCell>
        <mxCell id="277" value="3" style="edgeLabel;html=1;align=center;verticalAlign=middle;resizable=0;points=[];" parent="276" vertex="1" connectable="0">
          <mxGeometry x="0.6237" y="2" relative="1" as="geometry">
            <mxPoint as="offset" />
          </mxGeometry>
        </mxCell>
      </root>
    </mxGraphModel>
  </diagram>
  <diagram id="Lft8Qcf2WQ86oRP04gdE" name="Halaman-2">
    <mxGraphModel dx="1194" dy="610" grid="1" gridSize="10" guides="1" tooltips="1" connect="1" arrows="1" fold="1" page="1" pageScale="1" pageWidth="850" pageHeight="1100" math="0" shadow="0">
      <root>
        <mxCell id="0" />
        <mxCell id="1" parent="0" />
      </root>
    </mxGraphModel>
  </diagram>
</mxfile>
